<svg width="108" height="33" viewBox="0 0 108 33" fill="none" xmlns="http://www.w3.org/2000/svg">
<g clip-path="url(#clip0_1067_57)">
<path d="M1.57617 21.7871L11.478 16.9688L17.1773 20.5825L18.3287 32.4383L11.3053 32.3747L12.3415 24.1328L11.1326 23.372L5.20298 28.4442L1.57617 21.7871Z" fill="#C9D6FE"/>
<path d="M17.8105 20.0737L26.5611 27.1109L30.0152 20.3273L22.9916 17.2207V15.6991L30.0152 12.5291L26.5611 5.80872L17.8105 12.8461V20.0737Z" fill="#AB29A1"/>
<path d="M17.1773 12.2762L18.3287 0.42041L11.3053 0.547173L12.3415 8.78918L11.1326 9.54997L5.14542 4.47797L1.57617 11.0715L11.478 15.8899L17.1773 12.2762Z" fill="#255BF9"/>
</g>
<path d="M38.8267 23.457H36.4972L41.7315 8.91158H44.267L49.5014 23.457H47.1719L43.0597 11.5536H42.946L38.8267 23.457ZM39.2173 17.761H46.7741V19.6076H39.2173V17.761ZM51.3691 23.457V12.5479H53.4927V23.457H51.3691ZM52.4416 10.8647C52.0722 10.8647 51.755 10.7416 51.4899 10.4954C51.2294 10.2444 51.0992 9.94614 51.0992 9.6005C51.0992 9.25012 51.2294 8.95182 51.4899 8.70561C51.755 8.45466 52.0722 8.32919 52.4416 8.32919C52.8109 8.32919 53.1257 8.45466 53.3862 8.70561C53.6513 8.95182 53.7839 9.25012 53.7839 9.6005C53.7839 9.94614 53.6513 10.2444 53.3862 10.4954C53.1257 10.7416 52.8109 10.8647 52.4416 10.8647ZM56.1896 23.457V12.5479H58.2421V14.2809H58.3558C58.5546 13.6938 58.905 13.2321 59.4069 12.896C59.9135 12.555 60.4865 12.3846 61.1257 12.3846C61.2582 12.3846 61.4145 12.3893 61.5944 12.3988C61.7791 12.4083 61.9235 12.4201 62.0277 12.4343V14.4656C61.9424 14.4419 61.7909 14.4158 61.5731 14.3874C61.3553 14.3543 61.1375 14.3377 60.9197 14.3377C60.4178 14.3377 59.9704 14.4442 59.5774 14.6573C59.1891 14.8656 58.8813 15.1568 58.6541 15.5309C58.4268 15.9002 58.3132 16.3216 58.3132 16.7951V23.457H56.1896ZM69.5417 12.5479V14.2525H63.3769V12.5479H69.5417ZM65.0672 23.457V11.2837C65.0672 10.6019 65.2164 10.0361 65.5147 9.58629C65.813 9.13175 66.2083 8.79321 66.7008 8.57067C67.1932 8.34339 67.7282 8.22976 68.3059 8.22976C68.732 8.22976 69.0966 8.26527 69.3996 8.33629C69.7026 8.40258 69.9276 8.46413 70.0743 8.52095L69.5772 10.2397C69.4777 10.2113 69.3499 10.1781 69.1937 10.1403C69.0374 10.0977 68.848 10.0763 68.6255 10.0763C68.1094 10.0763 67.7401 10.2042 67.5175 10.4599C67.2997 10.7156 67.1908 11.0849 67.1908 11.5678V23.457H65.0672ZM75.7382 23.6772C74.7155 23.6772 73.823 23.4428 73.0606 22.9741C72.2983 22.5053 71.7065 21.8496 71.2851 21.0067C70.8637 20.1639 70.653 19.1791 70.653 18.0522C70.653 16.9206 70.8637 15.931 71.2851 15.0835C71.7065 14.2359 72.2983 13.5778 73.0606 13.109C73.823 12.6403 74.7155 12.4059 75.7382 12.4059C76.7609 12.4059 77.6534 12.6403 78.4158 13.109C79.1781 13.5778 79.7699 14.2359 80.1913 15.0835C80.6127 15.931 80.8234 16.9206 80.8234 18.0522C80.8234 19.1791 80.6127 20.1639 80.1913 21.0067C79.7699 21.8496 79.1781 22.5053 78.4158 22.9741C77.6534 23.4428 76.7609 23.6772 75.7382 23.6772ZM75.7453 21.8945C76.4082 21.8945 76.9574 21.7193 77.393 21.369C77.8286 21.0186 78.1506 20.5522 78.3589 19.9698C78.572 19.3874 78.6785 18.7459 78.6785 18.0451C78.6785 17.3491 78.572 16.7099 78.3589 16.1275C78.1506 15.5404 77.8286 15.0692 77.393 14.7141C76.9574 14.359 76.4082 14.1815 75.7453 14.1815C75.0777 14.1815 74.5237 14.359 74.0834 14.7141C73.6478 15.0692 73.3234 15.5404 73.1104 16.1275C72.902 16.7099 72.7979 17.3491 72.7979 18.0451C72.7979 18.7459 72.902 19.3874 73.1104 19.9698C73.3234 20.5522 73.6478 21.0186 74.0834 21.369C74.5237 21.7193 75.0777 21.8945 75.7453 21.8945ZM85.1574 8.91158V23.457H83.0338V8.91158H85.1574ZM87.8543 23.457V12.5479H89.9779V23.457H87.8543ZM88.9267 10.8647C88.5574 10.8647 88.2402 10.7416 87.975 10.4954C87.7146 10.2444 87.5844 9.94614 87.5844 9.6005C87.5844 9.25012 87.7146 8.95182 87.975 8.70561C88.2402 8.45466 88.5574 8.32919 88.9267 8.32919C89.296 8.32919 89.6109 8.45466 89.8713 8.70561C90.1365 8.95182 90.269 9.25012 90.269 9.6005C90.269 9.94614 90.1365 10.2444 89.8713 10.4954C89.6109 10.7416 89.296 10.8647 88.9267 10.8647ZM97.2699 23.6772C96.2472 23.6772 95.3547 23.4428 94.5924 22.9741C93.83 22.5053 93.2382 21.8496 92.8168 21.0067C92.3954 20.1639 92.1847 19.1791 92.1847 18.0522C92.1847 16.9206 92.3954 15.931 92.8168 15.0835C93.2382 14.2359 93.83 13.5778 94.5924 13.109C95.3547 12.6403 96.2472 12.4059 97.2699 12.4059C98.2926 12.4059 99.1852 12.6403 99.9475 13.109C100.71 13.5778 101.302 14.2359 101.723 15.0835C102.144 15.931 102.355 16.9206 102.355 18.0522C102.355 19.1791 102.144 20.1639 101.723 21.0067C101.302 21.8496 100.71 22.5053 99.9475 22.9741C99.1852 23.4428 98.2926 23.6772 97.2699 23.6772ZM97.277 21.8945C97.9399 21.8945 98.4891 21.7193 98.9247 21.369C99.3604 21.0186 99.6823 20.5522 99.8907 19.9698C100.104 19.3874 100.21 18.7459 100.21 18.0451C100.21 17.3491 100.104 16.7099 99.8907 16.1275C99.6823 15.5404 99.3604 15.0692 98.9247 14.7141C98.4891 14.359 97.9399 14.1815 97.277 14.1815C96.6094 14.1815 96.0554 14.359 95.6151 14.7141C95.1795 15.0692 94.8551 15.5404 94.6421 16.1275C94.4337 16.7099 94.3296 17.3491 94.3296 18.0451C94.3296 18.7459 94.4337 19.3874 94.6421 19.9698C94.8551 20.5522 95.1795 21.0186 95.6151 21.369C96.0554 21.7193 96.6094 21.8945 97.277 21.8945Z" fill="white"/>
<defs>
<clipPath id="clip0_1067_57">
<rect width="32" height="32" fill="white" transform="translate(0 0.457031)"/>
</clipPath>
</defs>
</svg>
